<mxfile host="app.diagrams.net" modified="2023-07-29T09:25:54.241Z" agent="Mozilla/5.0 (Windows NT 10.0; Win64; x64) AppleWebKit/537.36 (KHTML, like Gecko) Chrome/115.0.0.0 Safari/537.36" version="21.6.5" etag="LDREwQCTI3Pc45MPZ1qM" type="github">
  <diagram name="Page-1" id="m6yxZz-9iNLVj_BEBnjW">
    <mxGraphModel>
      <root>
        <mxCell id="0" />
        <mxCell id="1" parent="0" />
      </root>
    </mxGraphModel>
  </diagram>
</mxfile>
